<svg width="81" height="107" viewBox="0 0 81 107" fill="none" xmlns="http://www.w3.org/2000/svg">
<path d="M35.3084 106.478C52.447 106.478 64.5564 97.2012 71.0505 78.8906L79.644 54.7207C80.23 53.0605 80.523 51.4492 80.523 49.9844C80.523 44.8086 76.617 41.1953 71.6365 41.1953C68.2673 41.1953 65.24 43.1973 63.5798 47.0547L60.406 54.8672C60.3084 55.0625 60.1619 55.209 59.9666 55.209C59.7224 55.209 59.6248 55.0137 59.6248 54.7695V15.6094C59.6248 9.89648 56.0603 6.28319 50.5916 6.28319C48.5896 6.28319 46.783 7.01559 45.4158 8.28519C44.781 3.25589 41.5584 0.179688 36.7244 0.179688C31.988 0.179688 28.6677 3.35348 27.9353 8.18748C26.7146 6.96678 24.9568 6.28319 23.199 6.28319C18.1209 6.28319 14.7517 9.84769 14.7517 15.2676V20.6875C13.4334 19.3203 11.4314 18.5879 9.38057 18.5879C4.30247 18.5879 0.786865 22.2988 0.786865 27.8164V69.7598C0.786865 92.6113 14.6541 106.478 35.3084 106.478ZM35.0642 99.7402C17.7791 99.7402 7.23217 88.6074 7.23217 68.9785V28.5C7.23217 26.4004 8.55047 24.9844 10.6013 24.9844C12.6033 24.9844 14.0681 26.4004 14.0681 28.5V53.4512C14.0681 55.2578 15.533 56.4785 17.0955 56.4785C18.7556 56.4785 20.2693 55.2578 20.2693 53.4512V16.1465C20.2693 14.0469 21.5877 12.582 23.5896 12.582C25.6404 12.582 27.0564 14.0469 27.0564 16.1465V50.9609C27.0564 52.7676 28.5212 53.9883 30.1326 53.9883C31.7927 53.9883 33.2576 52.7676 33.2576 50.9609V10.0918C33.2576 7.99218 34.6736 6.47849 36.7244 6.47849C38.6775 6.47849 40.0935 7.99218 40.0935 10.0918V50.9609C40.0935 52.6699 41.4607 53.9883 43.1697 53.9883C44.8298 53.9883 46.2947 52.6699 46.2947 50.9609V16.1465C46.2947 14.0469 47.7107 12.582 49.7127 12.582C51.7146 12.582 53.1306 14.0469 53.1306 16.1465V64.1934C53.1306 66.6348 54.5466 68.0508 56.5974 68.0508C58.3552 68.0508 59.8201 67.2695 60.9431 64.8281L67.9744 49.1543C68.9021 47.0547 70.7088 46.3223 72.4177 46.957C74.322 47.6406 74.908 49.4473 74.0291 51.8398L65.0935 76.791C59.1365 93.4414 48.6873 99.7402 35.0642 99.7402Z" fill="black"/>
</svg>
